<!-- icon666.com - MILLIONS vector ICONS FREE --><svg viewBox="0 0 464 464.00708" xmlns="http://www.w3.org/2000/svg"><path d="m294.835938 75.902344c-1.441407-2.414063-4.046876-3.894532-6.863282-3.894532h-48v-64c.003906-3.667968-2.488281-6.867187-6.042968-7.765624-3.558594-.894532-7.269532.742187-9.003907 3.972656l-56 104c-1.335937 2.480468-1.269531 5.480468.175781 7.898437 1.445313 2.414063 4.054688 3.894531 6.871094 3.894531h48v64c0 3.667969 2.492188 6.863282 6.046875 7.757813.640625.160156 1.296875.242187 1.953125.242187 2.945313 0 5.652344-1.617187 7.046875-4.207031l56-104c1.335938-2.484375 1.265625-5.480469-.183593-7.898437zm0 0" fill="#84caff" style="fill: rgb(29, 65, 93);"></path><path d="m391.644531 381.75-40-136c-1-3.402344-4.125-5.742188-7.671875-5.742188h-224c-3.546875 0-6.671875 2.339844-7.671875 5.742188l-40 136c-.710937 2.417969-.238281 5.03125 1.269531 7.050781 1.511719 2.015625 3.882813 3.207031 6.402344 3.207031h304c2.519532 0 4.894532-1.191406 6.402344-3.207031 1.511719-2.019531 1.980469-4.632812 1.269531-7.050781zm0 0" fill="#84caff" style="fill: rgb(29, 65, 93);"></path><g fill="#005ed3"><path d="m391.644531 381.75-40-136c-1-3.402344-4.125-5.742188-7.671875-5.742188h-224c-3.546875 0-6.671875 2.339844-7.671875 5.742188l-40 136c-.078125.28125 0 .578125-.046875.863281-.140625.457031-.234375.921875-.28125 1.394531v32c0 4.417969 3.582032 8 8 8h128v24h-16c-4.417968 0-8 3.582032-8 8 0 4.417969 3.582032 8 8 8h80c4.417969 0 8-3.582031 8-8 0-4.417968-3.582031-8-8-8h-16v-24h128c4.417969 0 8-3.582031 8-8v-32c-.046875-.476562-.140625-.945312-.28125-1.402343-.054687-.285157.035156-.574219-.046875-.855469zm-222.671875-5.742188 3.761719-32h51.238281v32zm-78.304687 0 9.410156-32h56.542969l-3.761719 32zm23.53125-80h48.070312l-3.761719 32h-53.734374zm244.972656 32h-53.734375l-3.761719-32h48.074219zm-69.839844 0h-49.359375v-32h45.601563zm-49.359375-48v-24h40.886719l2.824219 24zm-16 0h-43.710937l2.824219-24h40.886718zm0 16v32h-49.351562l3.761718-32zm16 48h51.242188l3.757812 32h-55zm71.113282 32-3.761719-32h56.546875l9.40625 32zm33.960937-96h-45.25l-2.824219-24h41.015625zm-219.089844-24h41.015625l-2.824218 24h-45.246094zm114.015625 192h-16v-24h16zm136-40h-288v-16h288zm0 0" fill="#005ed3"></path><path d="m175.972656 120.007812h48v64c0 3.667969 2.492188 6.863282 6.046875 7.757813.640625.160156 1.296875.242187 1.953125.242187 2.945313 0 5.652344-1.617187 7.046875-4.207031l56-104c1.335938-2.480469 1.269531-5.480469-.175781-7.898437-1.445312-2.417969-4.054688-3.898438-6.871094-3.894532h-48v-64c.003906-3.667968-2.488281-6.867187-6.042968-7.765624-3.558594-.894532-7.269532.742187-9.003907 3.972656l-56 104c-1.335937 2.480468-1.269531 5.480468.175781 7.898437 1.445313 2.414063 4.054688 3.894531 6.871094 3.894531zm48-80.265624v40.265624c0 4.417969 3.582032 8 8 8h42.609375l-34.609375 64.261719v-40.261719c0-4.417968-3.582031-8-8-8h-42.605468zm0 0" fill="#005ed3"></path><path d="m119.972656 208.007812c.957032-.003906 1.902344-.175781 2.800782-.503906 3.613281-1.351562 5.746093-5.089844 5.070312-8.890625l-24-136c-.46875-2.65625-2.25-4.898437-4.730469-5.960937-2.484375-1.058594-5.332031-.796875-7.578125.699218l-41.554687 27.703126-35.503907-49.695313c-2.152343-2.96875-6.050781-4.089844-9.453124-2.722656-3.40625 1.367187-5.441407 4.871093-4.945313 8.507812l16 112c.390625 2.71875 2.148437 5.046875 4.65625 6.167969s5.417969.875 7.703125-.648438l41.015625-27.34375 43.6875 72.796876c1.441406 2.40625 4.03125 3.878906 6.832031 3.890624zm-41.144531-92.121093c-1.121094-1.875-2.964844-3.207031-5.09375-3.6875-.578125-.125-1.167969-.191407-1.761719-.191407-1.578125.003907-3.125.46875-4.4375 1.34375l-37.433594 24.960938-9.601562-66.960938 20.9375 29.304688c2.507812 3.511719 7.351562 4.398438 10.945312 2.007812l37.804688-25.210937 14.355469 81.347656zm0 0" fill="#005ed3"></path><path d="m458.949219 32.574219c-3.425781-1.367188-7.339844-.214844-9.480469 2.785156l-35.503906 49.695313-41.550782-27.703126c-2.246093-1.496093-5.097656-1.757812-7.582031-.699218-2.480469 1.0625-4.261719 3.304687-4.730469 5.960937l-24 136c-.671874 3.800781 1.460938 7.539063 5.070313 8.890625.898437.328125 1.847656.5 2.800781.503906 2.808594 0 5.410156-1.472656 6.855469-3.878906l43.6875-72.800781 41.019531 27.34375c2.285156 1.523437 5.191406 1.769531 7.703125.648437 2.507813-1.121093 4.265625-3.449218 4.65625-6.167968l16-112c.53125-3.660156-1.515625-7.203125-4.945312-8.578125zm-25.105469 105.738281-37.429688-24.960938c-1.820312-1.214843-4.058593-1.628906-6.191406-1.148437-2.132812.476563-3.980468 1.808594-5.105468 3.683594l-25.742188 42.914062 14.351562-81.347656 37.808594 25.210937c3.589844 2.390626 8.433594 1.503907 10.941406-2.007812l20.9375-29.304688zm0 0" fill="#005ed3"></path></g></svg>