<!-- icon666.com - MILLIONS vector ICONS FREE --><svg version="1.1" id="Capa_1" xmlns="http://www.w3.org/2000/svg" xmlns:xlink="http://www.w3.org/1999/xlink" x="0px" y="0px" viewBox="0 0 512 512" style="enable-background:new 0 0 512 512;" xml:space="preserve"><g><g><path d="M376,450H136c-16.569,0-30,15.431-30,32v15c0,8.284,6.716,15,15,15h270c8.284,0,15-6.716,15-15v-15 C406,465.431,392.569,450,376,450z"/></g></g><g><g><path d="M185.497,90c-8.276,0-15,6.724-15,15s6.724,15,15,15s15-6.724,15-15S193.773,90,185.497,90z"/></g></g><g><g><path d="M325.777,238.879c-15.186-3.365-27.368-14.441-32.517-28.879H189.43l-6.667,60h146.473L325.777,238.879z"/></g></g><g><g><path d="M312.574,120h-84.84c-5.026,14.097-16.783,24.917-31.474,28.553L192.765,180H293.26 c4.032-11.309,12.372-20.5,23.137-25.589L312.574,120z"/></g></g><g><g><path d="M495.701,210H377.734c-3.909,10.964-11.887,19.894-22.187,25.073L359.429,270h149.608L495.701,210z"/></g></g><g><g><path d="M475.699,120H342.766l3.494,31.447c14.691,3.636,26.448,14.456,31.474,28.553h111.301L475.699,120z"/></g></g><g><g><path d="M299.24,0h-86.48l-7.213,64.927c10.3,5.179,18.278,14.109,22.187,25.073h81.506L299.24,0z"/></g></g><g><g><path d="M143.26,120H36.301l-13.336,60h139.607l3.825-34.411C155.632,140.5,147.292,131.309,143.26,120z"/></g></g><g><g><path d="M0,300v15c0,24.814,20.186,45,45,45h145.194l-19.999,60h171.61l-19.999-60H467c24.814,0,45-20.186,45-45v-15H0z"/></g></g><g><g><path d="M335.497,180c-8.276,0-15,6.724-15,15s6.724,15,15,15s15-6.724,15-15S343.773,180,335.497,180z"/></g></g><g><g><polygon points="16.298,210 2.963,270 152.571,270 159.24,210 "/></g></g><g><g><path d="M456.863,35.244C452.249,14.487,434.188,0,412.933,0h-83.5l9.999,90h129.6L456.863,35.244z"/></g></g><g><g><path d="M99.067,0c-21.254,0-39.316,14.487-43.93,35.244L42.968,90H143.26c5.149-14.438,17.331-25.514,32.518-28.879L182.567,0 H99.067z"/></g></g></svg>